# xmcd
#
# Track frame offsets:
#	150
#	12923
#	25276
#	37813
#	52678
#	67514
#	83817
#	103429
#	119562
#	137716
#	159554
#	174248
#	187152
#	205357
#	219285
#	233970
#	249039
#	264866
#	281908
#	297954
#
# Disc length: 4171 seconds
#
# Revision: 1
# Processed by: cddbd v1.5.2PL0 Copyright (c) Steve Scherf et al.
# Submitted via: audiograbber 1.83.01
#
DISCID=14104914
DTITLE=Various Artist - Sounds Like Nashville CD3
DYEAR=2015
DGENRE=Country
TTITLE0=Vince Gill - The Reason Why
TTITLE1=Easton Corbin - All Over The Road
TTITLE2=Mary Sarah and Willie Nelson - Crazy
TTITLE3=Alan Jackson - You Go Your Way
TTITLE4=Josh Turner - All Over Me
TTITLE5=Lee Ann Womack - Either Way
TTITLE6=Gary Allan - It Ain't The Whiskey
TTITLE7=Sunny Sweeney - From A Table Away
TTITLE8=Chris Stapleton - What Are You Listening To?
TTITLE9=Jamey Johnson - In Color
TTITLE10=Randy Houser - Lowdown And Lonesome
TTITLE11=Holly Williams - Mama
TTITLE12=Randy Montana - 1.000 Faces
TTITLE13=Joe Nichols - Gimmie That Girl
TTITLE14=Wes Mack and Charly McKillip - Duet
TTITLE15=Randy Rogers Band - Fuzzy
TTITLE16=Jon Pardi - Up All Night
TTITLE17=Martina McBride - I'm Gonna Love You Through It
TTITLE18=JT Hodges - Sleepy Little Town
TTITLE19=Joel Crouse - If You Want Some
EXTD=
EXTT0=
EXTT1=
EXTT2=
EXTT3=
EXTT4=
EXTT5=
EXTT6=
EXTT7=
EXTT8=
EXTT9=
EXTT10=
EXTT11=
EXTT12=
EXTT13=
EXTT14=
EXTT15=
EXTT16=
EXTT17=
EXTT18=
EXTT19=
PLAYORDER=
